<svg width="100%" height="100%" viewBox="0 0 101 100" version="1.1" xmlns="http://www.w3.org/2000/svg" xmlns:xlink="http://www.w3.org/1999/xlink" xml:space="preserve" xmlns:serif="http://www.serif.com/" style="fill-rule:evenodd;clip-rule:evenodd;stroke-linejoin:round;stroke-miterlimit:1.41421;">
  <rect id="discord" x="0.175" y="0" width="100" height="100" style="fill-opacity:0;" />
  <path d="M90.175,10c-12.705,-12.095 -68.948,-11.191 -80,0c-11.787,11.936 -12.043,67.463 0,80c11.294,11.756 67.794,12.045 80,0c11.292,-11.142 12.392,-68.203 0,-80Zm-21.476,67.151c0,0 -2.353,-2.81 -4.313,-5.228c8.56,-2.417 11.827,-7.71 11.827,-7.71c-2.679,1.764 -5.227,3.006 -7.514,3.855c-3.268,1.372 -6.404,2.222 -9.475,2.81c-6.274,1.176 -12.024,0.849 -16.925,-0.065c-3.724,-0.719 -6.926,-1.699 -9.605,-2.81c-1.503,-0.588 -3.137,-1.307 -4.771,-2.222c-0.196,-0.131 -0.392,-0.196 -0.588,-0.327c-0.13,-0.065 -0.196,-0.13 -0.261,-0.13c-1.176,-0.654 -1.83,-1.111 -1.83,-1.111c0,0 3.137,5.162 11.436,7.645c-1.961,2.483 -4.379,5.358 -4.379,5.358c-14.441,-0.457 -19.93,-9.867 -19.93,-9.867c0,-20.845 9.41,-37.769 9.41,-37.769c9.41,-6.992 18.297,-6.796 18.297,-6.796l0.653,0.784c-11.762,3.333 -17.12,8.495 -17.12,8.495c0,0 1.437,-0.784 3.855,-1.83c6.992,-3.071 12.546,-3.855 14.833,-4.116c0.392,-0.066 0.719,-0.131 1.111,-0.131c3.986,-0.523 8.495,-0.653 13.2,-0.131c6.207,0.719 12.873,2.549 19.669,6.208c0,0 -5.163,-4.901 -16.271,-8.233l0.914,-1.046c0,0 8.953,-0.196 18.297,6.796c0,0 9.41,16.924 9.41,37.769c0,-0.065 -5.489,9.345 -19.93,9.802Zm-6.535,-30.255c-3.725,0 -6.665,3.202 -6.665,7.188c0,3.986 3.006,7.188 6.665,7.188c3.725,0 6.665,-3.202 6.665,-7.188c0,-3.986 -3.006,-7.188 -6.665,-7.188Zm-23.851,0c-3.724,0 -6.665,3.202 -6.665,7.188c0,3.986 3.006,7.188 6.665,7.188c3.725,0 6.665,-3.202 6.665,-7.188c0.066,-3.986 -2.94,-7.188 -6.665,-7.188Z" style="fill-rule:nonzero;" /></svg>
