<svg viewBox="0 0 101 100" version="1.1" xmlns="http://www.w3.org/2000/svg" xmlns:xlink="http://www.w3.org/1999/xlink" xml:space="preserve" xmlns:serif="http://www.serif.com/" >
  <rect id="RSS" x="0.175" y="0" width="100" height="100" style="fill-opacity:0;" />
  <clipPath id="_clip1">
    <rect id="RSS1" serif:id="RSS" x="0.175" y="0" width="100" height="100" />
  </clipPath>
  <g clip-path="url(#_clip1)">
    <path d="M90.175,10c-12.705,-12.095 -68.948,-11.191 -80,0c-11.787,11.936 -12.043,67.463 0,80c11.294,11.756 67.794,12.045 80,0c11.292,-11.142 12.392,-68.203 0,-80Zm-71.2,8.766c0.392,-0.388 0.869,-0.67 1.65,-0.642c33.343,1.212 60.511,28.158 61.53,61.583c0.024,0.78 -0.256,1.279 -0.635,1.67c-0.379,0.392 -1.05,0.631 -1.64,0.679c-1.403,0.113 -5.363,0.112 -6.775,0c-0.608,-0.049 -1.299,-0.303 -1.7,-0.673c-0.402,-0.37 -0.668,-0.811 -0.708,-1.547c-1.496,-27.15 -23.068,-49.107 -50.182,-50.253c-0.744,-0.031 -1.398,-0.107 -1.772,-0.493c-0.373,-0.386 -0.422,-1.26 -0.471,-1.824c-0.123,-1.392 -0.117,-5.399 0,-6.816c0.05,-0.606 0.31,-1.297 0.703,-1.684Zm0.068,20.457c0.392,-0.38 0.8,-0.527 1.577,-0.485c21.992,1.181 39.636,18.839 40.794,40.836c0.04,0.763 -0.258,1.214 -0.604,1.598c-0.345,0.384 -0.926,0.661 -1.467,0.706c-1.401,0.118 -5.524,0.103 -6.942,0c-0.559,-0.04 -1.179,-0.256 -1.565,-0.616c-0.386,-0.36 -0.702,-0.83 -0.75,-1.543c-1.065,-15.901 -13.809,-28.625 -29.718,-29.66c-0.693,-0.045 -1.086,-0.337 -1.435,-0.708c-0.35,-0.371 -0.618,-0.969 -0.661,-1.52c-0.11,-1.388 -0.129,-5.377 0,-6.811c0.058,-0.649 0.38,-1.416 0.771,-1.797Zm8.288,24.537c5,0 9.059,4.059 9.059,9.059c0,5 -4.059,9.059 -9.059,9.059c-5,0 -9.059,-4.059 -9.059,-9.059c0,-5 4.059,-9.059 9.059,-9.059Z" />
  </g>
</svg>
