<svg  viewBox="0 0 101 101" version="1.1" xmlns="http://www.w3.org/2000/svg" xmlns:xlink="http://www.w3.org/1999/xlink" xml:space="preserve" xmlns:serif="http://www.serif.com/" style="fill-rule:evenodd;clip-rule:evenodd;stroke-linejoin:round;stroke-miterlimit:1.41421;">
  <rect id="twitter" x="0.411" y="0.095" style="fill:#4d4d4d;fill-opacity:0;" />
  <path d="M90.411,10.095c-12.705,-12.095 -68.948,-11.191 -80,0c-11.787,11.936 -12.043,67.463 0,80c11.294,11.756 67.794,12.046 80,0c11.292,-11.142 12.392,-68.203 0,-80Zm-5,18.386c-2.573,1.142 -5.345,1.916 -8.248,2.263c2.965,-1.779 5.244,-4.59 6.316,-7.946c-2.776,1.647 -5.851,2.842 -9.119,3.483c-2.617,-2.794 -6.351,-4.537 -10.484,-4.537c-7.932,0 -14.363,6.43 -14.363,14.363c0,1.124 0.128,2.222 0.374,3.272c-11.939,-0.593 -22.524,-6.312 -29.609,-15c-1.234,2.122 -1.941,4.586 -1.941,7.217c0,4.98 2.534,9.377 6.391,11.955c-2.359,-0.074 -4.573,-0.72 -6.51,-1.796c0,0.061 0,0.119 0,0.18c0,6.957 4.95,12.764 11.521,14.082c-1.203,0.329 -2.473,0.505 -3.782,0.505c-0.926,0 -1.827,-0.092 -2.701,-0.259c1.827,5.705 7.133,9.86 13.419,9.975c-4.915,3.852 -11.109,6.149 -17.838,6.149c-1.159,0 -2.301,-0.066 -3.426,-0.202c6.356,4.076 13.906,6.452 22.019,6.452c26.42,0 40.866,-21.887 40.866,-40.866c0,-0.624 -0.013,-1.243 -0.04,-1.858c2.794,-2.02 5.232,-4.55 7.155,-7.432Z"  /></svg>
