<?xml version="1.0" encoding="UTF-8" standalone="no"?><!DOCTYPE svg PUBLIC "-//W3C//DTD SVG 1.1//EN" "http://www.w3.org/Graphics/SVG/1.1/DTD/svg11.dtd"><svg width="100%" height="100%" viewBox="0 0 100 100" version="1.1" xmlns="http://www.w3.org/2000/svg" xmlns:xlink="http://www.w3.org/1999/xlink" xml:space="preserve" xmlns:serif="http://www.serif.com/" style="fill-rule:evenodd;clip-rule:evenodd;stroke-linejoin:round;stroke-miterlimit:1.41421;"><rect id="github" x="0" y="0" width="100" height="100" style="fill:#4d4d4d;fill-opacity:0;"/><path d="M90,10c-12.705,-12.095 -68.948,-11.191 -80,0c-11.788,11.936 -12.044,67.463 0,80c11.293,11.756 67.794,12.045 80,0c11.291,-11.142 12.392,-68.203 0,-80Zm-28.343,78.069c0,1.243 -23.014,1.238 -23.014,0.006c0,-1.101 -0.042,-4.019 -0.059,-7.895c-12.912,2.805 -15.634,-6.22 -15.634,-6.22c-2.111,-5.358 -5.155,-6.788 -5.155,-6.788c-4.216,-2.876 0.317,-2.822 0.317,-2.822c4.659,0.329 7.111,4.784 7.111,4.784c4.139,7.093 10.861,5.042 13.504,3.858c0.425,-3.003 1.621,-5.042 2.948,-6.202c-10.304,-1.178 -21.135,-5.156 -21.135,-22.942c0,-5.065 1.806,-9.21 4.779,-12.451c-0.479,-1.178 -2.076,-5.897 0.454,-12.284c0,0 3.899,-1.25 12.763,4.76c3.702,-1.034 7.667,-1.549 11.614,-1.567c3.941,0.018 7.912,0.533 11.62,1.561c8.863,-6.004 12.751,-4.76 12.751,-4.76c2.529,6.387 0.939,11.106 0.46,12.284c2.973,3.241 4.773,7.386 4.773,12.451c0,17.828 -10.849,21.752 -21.189,22.9c1.668,1.435 3.151,4.264 3.151,8.594c0,6.202 -0.059,11.207 -0.059,12.733Z" style="fill:#808080;"/></svg>