<?xml version="1.0" encoding="UTF-8" standalone="no"?><!DOCTYPE svg PUBLIC "-//W3C//DTD SVG 1.1//EN" "http://www.w3.org/Graphics/SVG/1.1/DTD/svg11.dtd"><svg width="100%" height="100%" viewBox="0 0 101 100" version="1.1" xmlns="http://www.w3.org/2000/svg" xmlns:xlink="http://www.w3.org/1999/xlink" xml:space="preserve" xmlns:serif="http://www.serif.com/" style="fill-rule:evenodd;clip-rule:evenodd;stroke-linejoin:round;stroke-miterlimit:1.41421;"><rect id="mastodon" x="0.175" y="0" width="100" height="100" style="fill:#4d4d4d;fill-opacity:0;"/><path d="M90.175,10c-12.705,-12.095 -68.948,-11.191 -80,0c-11.787,11.936 -12.043,67.463 0,80c11.294,11.756 67.794,12.045 80,0c11.292,-11.142 12.392,-68.203 0,-80Zm-5.939,50.944c-1.029,5.294 -9.216,11.087 -18.619,12.21c-4.903,0.585 -9.73,1.123 -14.878,0.887c-8.419,-0.386 -15.062,-2.01 -15.062,-2.01c0,0.82 0.051,1.6 0.152,2.33c1.094,8.308 8.238,8.806 15.005,9.038c6.83,0.234 12.912,-1.684 12.912,-1.684l0.281,6.175c0,0 -4.778,2.565 -13.288,3.037c-4.693,0.258 -10.52,-0.118 -17.307,-1.915c-14.72,-3.896 -17.251,-19.586 -17.638,-35.506c-0.118,-4.727 -0.046,-9.184 -0.046,-12.912c0,-16.28 10.667,-21.051 10.667,-21.051c5.378,-2.47 14.606,-3.509 24.201,-3.587l0.235,0c9.594,0.078 18.829,1.117 24.207,3.587c0,0 10.666,4.771 10.666,21.051c0,0 0.133,12.011 -1.488,20.35Zm-11.094,0.625l0,-19.712c0,-4.029 -1.025,-7.23 -3.085,-9.599c-2.125,-2.368 -4.908,-3.582 -8.362,-3.582c-3.996,0 -7.023,1.536 -9.023,4.608l-1.946,3.261l-1.945,-3.261c-2.001,-3.072 -5.027,-4.608 -9.023,-4.608c-3.454,0 -6.237,1.214 -8.362,3.582c-2.06,2.369 -3.086,5.57 -3.086,9.599l0,19.712l7.81,0l0,-19.133c0,-4.033 1.696,-6.08 5.091,-6.08c3.753,0 5.634,2.429 5.634,7.23l0,10.472l7.763,0l0,-10.472c0,-4.801 1.881,-7.23 5.634,-7.23c3.394,0 5.091,2.047 5.091,6.08l0,19.133l7.809,0Z" style="fill:#808080;"/></svg>